# xmcd
#
# Track frame offsets: 
#        150
#        16852
#        25875
#        44371
#        60288
#        77717
#        86783
#        99780
#        118175
#        131756
#        146176
#        161846
#        179236
#        193156
#        212439
#        229194
#        238113
#        256460
#        271097
#        278926
#        288909
#        310166
#        321244
#        339352
#
# Disc length: 4698 seconds
#
# Revision: 1
# Processed by: cddbd v1.5.2PL0 Copyright (c) Steve Scherf et al.
# Submitted via: ExactAudioCopy v0.95b4
#
DISCID=61125818
DTITLE=Дёмин Александр - Грязные блюзы
DYEAR=2008
DGENRE=Rock
TTITLE0=Блюз Для Майка 
TTITLE1=Новая Тема Для Рок-н-Ролла
TTITLE2=Подключайся К Моей Розетке
TTITLE3=Знамена Чернеют 
TTITLE4=Такой У Тебя Не Будет (Памяти I-го Владивостокского Конкурса К
TTITLE4=расоты)
TTITLE5=Сексуальные Сны
TTITLE6=Сыграй Это Погорячей
TTITLE7=Слишком Долго Здесь
TTITLE8=Грязные Блюзы
TTITLE9=Несколько Советов Ученику Третьего Класса, Мечтающему Стать Ба
TTITLE9=с-Гитаристом (Посвящение Бобу Дилану и Мх)
TTITLE10=Вниз По Реке (Маленькому Стражнику)
TTITLE11=Пять Утра
TTITLE12=Враг Общества №1 
TTITLE13=Мне Холодно
TTITLE14=Асфальтовый Блюз
TTITLE15=Промой Мне Глаза
TTITLE16=Знамена Чернеют
TTITLE17=Holocaust Blues
TTITLE18=Увертюра 
TTITLE19=Утренний Кофе
TTITLE20=Послеобеденная Прогулка
TTITLE21=Вечерний Коктейль
TTITLE22=Полуночный Блюз
TTITLE23=Если Это То Место
EXTD=
EXTT0=
EXTT1=
EXTT2=
EXTT3=
EXTT4=
EXTT5=
EXTT6=
EXTT7=
EXTT8=
EXTT9=
EXTT10=
EXTT11=
EXTT12=
EXTT13=
EXTT14=
EXTT15=
EXTT16=
EXTT17=
EXTT18=
EXTT19=
EXTT20=
EXTT21=
EXTT22=
EXTT23=
PLAYORDER=
